<?xml version="1.0" encoding="UTF-8"?>
<svg width="298px" height="37px" viewBox="0 0 298 37" version="1.1" xmlns="http://www.w3.org/2000/svg" xmlns:xlink="http://www.w3.org/1999/xlink">
    <!-- Generator: Sketch 52.5 (67469) - http://www.bohemiancoding.com/sketch -->
    <title>Group 40</title>
    <desc>Created with Sketch.</desc>
    <defs>
        <polygon id="path-1" points="0 0.726785714 36.2737429 0.726785714 36.2737429 36.999119 0 36.999119"></polygon>
        <polygon id="path-3" points="0 37 298 37 298 1 0 1"></polygon>
    </defs>
    <g id="Page-1" stroke="none" stroke-width="1" fill="none" fill-rule="evenodd">
        <g id="Group-40">
            <path d="M150.001749,1.55083305 C140.37925,1.55083305 132.552555,9.37790839 132.552555,19.0008743 C132.552555,28.6220916 140.37925,36.449167 150.001749,36.449167 C159.622499,36.449167 167.450942,28.6220916 167.450942,19.0008743 C167.450942,9.37790839 159.622499,1.55083305 150.001749,1.55083305 M150.001749,37 C140.074995,37 132,28.9246126 132,19.0008743 C132,9.07538738 140.074995,1 150.001749,1 C159.926753,1 168,9.07538738 168,19.0008743 C168,28.9246126 159.926753,37 150.001749,37" id="Fill-1" fill="#1D1D1B"></path>
            <path d="M132.63672,19.5 C136.249455,25.6417401 142.888792,29.4497588 150.000872,29.4497588 C157.111208,29.4497588 163.750545,25.6417401 167.36328,19.5 C163.750545,13.3582599 157.111208,9.55198802 150.000872,9.55198802 C142.888792,9.55198802 136.249455,13.3582599 132.63672,19.5 M150.000872,30 C142.639337,30 135.773223,26.0295292 132.080244,19.637997 L132,19.5 L132.080244,19.362003 C135.773223,12.9704708 142.639337,9 150.000872,9 C157.360663,9 164.226777,12.9704708 167.9215,19.362003 L168,19.5 L167.9215,19.637997 C164.226777,26.0295292 157.360663,30 150.000872,30" id="Fill-3" fill="#1D1D1B"></path>
            <path d="M157,19.5 C157,23.6416862 153.641686,27 149.5,27 C145.358314,27 142,23.6416862 142,19.5 C142,15.3583138 145.358314,12 149.5,12 C153.641686,12 157,15.3583138 157,19.5" id="Fill-5" fill="#1D1D1B"></path>
            <path d="M150.000903,11.56917 C145.901073,11.56917 142.56917,14.9028797 142.56917,18.9990966 C142.56917,23.0971203 145.901073,26.43083 150.000903,26.43083 C154.09712,26.43083 157.429023,23.0971203 157.429023,18.9990966 C157.429023,14.9028797 154.09712,11.56917 150.000903,11.56917 M150.000903,27 C145.588481,27 142,23.4115189 142,18.9990966 C142,14.5884811 145.588481,11 150.000903,11 C154.409712,11 158,14.5884811 158,18.9990966 C158,23.4115189 154.409712,27 150.000903,27" id="Fill-7" fill="#1D1D1B"></path>
            <path d="M106,1.55083305 C96.37925,1.55083305 88.5508063,9.37790839 88.5508063,19.0008743 C88.5508063,28.6220916 96.37925,36.449167 106,36.449167 C115.622499,36.449167 123.450942,28.6220916 123.450942,19.0008743 C123.450942,9.37790839 115.622499,1.55083305 106,1.55083305 M106,37 C96.0749951,37 88,28.9246126 88,19.0008743 C88,9.07538738 96.0749951,1 106,1 C115.926753,1 124,9.07538738 124,19.0008743 C124,28.9246126 115.926753,37 106,37" id="Fill-9" fill="#1D1D1B"></path>
            <path d="M88.6367205,19.0533146 C92.1325774,24.9635216 98.5695595,25.4475623 105.999128,25.4475623 C113.428696,25.4475623 119.865678,24.9635216 123.36328,19.0533146 C120.345399,13.9375658 114.822503,11.5524377 105.999128,11.5524377 C97.1774967,11.5524377 91.6528565,13.9375658 88.6367205,19.0533146 M105.999128,26 C98.3392935,26 91.7051897,25.487899 88.0802442,19.1918625 L88,19.0533146 L88.0802442,18.9147667 C91.1888356,13.5149071 96.8826864,11 105.999128,11 C115.117314,11 120.811164,13.5149071 123.9215,18.9147667 L124,19.0533146 L123.9215,19.1918625 C120.29481,25.487899 113.660706,26 105.999128,26" id="Fill-11" fill="#1D1D1B"></path>
            <path d="M113,19.2635421 C113,23.2278293 109.641686,22.9975038 105.498244,22.9975038 C101.356557,22.9975038 98,23.2278293 98,19.2635421 C98,15.2992549 101.356557,15 105.498244,15 C109.641686,15 113,15.2992549 113,19.2635421" id="Fill-13" fill="#1D1D1B"></path>
            <path d="M106,22.4376109 L106.67028,22.439385 C109.237579,22.4429332 111.454381,22.4535778 112.578139,21.3536369 C113.150858,20.7912478 113.429088,19.9485512 113.429088,18.7776464 C113.429088,14.8693081 110.209575,14.5588409 106,14.5588409 C101.790425,14.5588409 98.5709124,14.8693081 98.5709124,18.7776464 C98.5709124,19.9485512 98.8509485,20.7912478 99.4236676,21.3536369 C100.547425,22.4535778 102.764228,22.4464814 105.331527,22.439385 L106,22.4376109 Z M107.306233,23 C107.094851,23 106.883469,22.9982259 106.668473,22.9982259 L106,22.9964518 L105.333333,22.9982259 C102.639566,23.0017741 100.314363,23.0141928 99.0225836,21.7492608 C98.3360434,21.0768776 98,20.1046718 98,18.7776464 C98,14.3583678 101.62421,14 106,14 C110.377597,14 114,14.3583678 114,18.7776464 C114,20.1046718 113.665763,21.0768776 112.979223,21.7492608 C111.790425,22.9130692 109.727191,23 107.306233,23 Z" id="Fill-15" fill="#1D1D1B"></path>
            <path d="M62,1.55083305 C52.37925,1.55083305 44.5508063,9.37790839 44.5508063,19.0008743 C44.5508063,28.6220916 52.37925,36.449167 62,36.449167 C71.6224985,36.449167 79.4491937,28.6220916 79.4491937,19.0008743 C79.4491937,9.37790839 71.6224985,1.55083305 62,1.55083305 M62,37 C52.0749951,37 44,28.9246126 44,19.0008743 C44,9.07538738 52.0749951,1 62,1 C71.9267534,1 80,9.07538738 80,19.0008743 C80,28.9246126 71.9267534,37 62,37" id="Fill-17" fill="#1D1D1B"></path>
            <path d="M61.3772964,22.4645224 L61.4867586,22.4645224 C62.0058214,22.4645224 62.503698,22.4662063 62.9803884,22.4662063 C69.3115427,22.486413 72.2829126,22.4965164 78.7623706,18.7650124 C72.6960443,16.5203848 69.0043422,16.4648164 61.4902896,16.5557466 C60.9676958,16.5624821 60.4645226,16.5675338 59.9807701,16.5709016 C53.9338646,16.6332056 50.8247841,16.6635156 44.1934914,18.7986903 C49.6436513,22.4645224 54.101589,22.4645224 61.3772964,22.4645224 M64.2621558,23 C63.8472587,23 63.4217684,23 62.9786229,22.9983161 C62.5019325,22.9966322 62.0058214,22.9949483 61.4867586,22.9949483 L61.3772964,22.9949483 L61.2695997,22.9949483 C53.7573126,22.9949483 49.2005058,22.9764255 43.4272558,18.926666 L43,18.6286172 L43.5014076,18.4635958 C50.5740803,16.1347736 53.7167056,16.1044636 59.9754736,16.0421596 C60.4574605,16.035424 60.9606337,16.0303724 61.4849931,16.0236368 C69.2868254,15.9310227 73.0103068,15.9933267 79.4879992,18.4669636 L80,18.6639789 L79.5303717,18.9401372 C73.0473827,22.7524679 69.9947989,23 64.2621558,23" id="Fill-19" fill="#1D1D1B"></path>
            <path d="M69,19.9993977 C69,23.8892995 65.6416862,22.883006 61.4982436,22.883006 C57.3565574,22.883006 54,23.8892995 54,19.9993977 C54,16.1094958 57.3565574,17.117439 61.4982436,17.117439 C65.6416862,17.117439 69,16.1094958 69,19.9993977" id="Fill-21" fill="#1D1D1B"></path>
            <path d="M62,22.3162443 C62.7750678,22.3162443 63.5103884,22.3516709 64.2222222,22.385326 C66.2529359,22.4809776 67.8572719,22.5571446 68.7136405,21.7582768 C69.1960253,21.3083601 69.4290876,20.567946 69.4290876,19.4998367 C69.4290876,18.4317274 69.1960253,17.6930846 68.7136405,17.2413966 C67.8572719,16.4425287 66.2529359,16.5186957 64.2222222,16.6143473 C63.5121951,16.6480025 62.7750678,16.683429 62,16.683429 C61.2249322,16.683429 60.4896116,16.6480025 59.7795845,16.6143473 C57.7470641,16.5204671 56.1427281,16.4425287 55.2881662,17.2413966 C54.8057814,17.6930846 54.5709124,18.4317274 54.5709124,19.4998367 C54.5709124,20.567946 54.8057814,21.3083601 55.2881662,21.7582768 C56.1427281,22.5571446 57.7470641,22.4809776 59.7795845,22.385326 C60.4896116,22.3516709 61.2249322,22.3162443 62,22.3162443 M65.9548329,22.999976 C65.4019874,22.999976 64.8112014,22.9716348 64.195122,22.9432936 C63.4905149,22.9096384 62.7606143,22.8742119 62,22.8742119 C61.2393857,22.8742119 60.5112918,22.9096384 59.804878,22.9432936 C57.7253839,23.0407165 55.9277326,23.1275115 54.8943089,22.162139 C54.2926829,21.6006288 54,20.7291366 54,19.4998367 C54,18.2705367 54.2926829,17.3990446 54.8943089,16.8375344 C55.9277326,15.8739332 57.7235772,15.9589569 59.804878,16.0563798 C60.5112918,16.090035 61.2393857,16.1254615 62,16.1254615 C62.7606143,16.1254615 63.4905149,16.090035 64.195122,16.0563798 C66.2764228,15.9589569 68.0740741,15.8739332 69.1074977,16.8375344 C69.7091238,17.3990446 70,18.2705367 70,19.4998367 C70,20.7291366 69.7091238,21.6006288 69.1074977,22.162139 C68.3794038,22.8405567 67.2737127,22.999976 65.9548329,22.999976" id="Fill-23" fill="#1D1D1B"></path>
            <path d="M298,19 C298,19.4934085 291.818341,19.660815 291.767514,20.1418882 C291.716686,20.6317723 297.731842,22.0785165 297.63194,22.552541 C297.530285,23.0336143 291.450281,21.9040613 291.301304,22.3657507 C291.148822,22.8327266 296.729316,25.5112297 296.533017,25.9552973 C296.334966,26.4028893 290.621269,24.0204312 290.379401,24.4415906 C290.13578,24.8645122 295.037992,28.6549465 294.752307,29.0496733 C294.464869,29.4444001 289.371617,25.9200539 289.047374,26.2830615 C288.721377,26.6460692 292.736739,31.3739797 292.375689,31.7017439 C292.01464,32.0277459 287.753905,27.5218692 287.36306,27.8091034 C286.970462,28.0963377 289.92546,33.5590743 289.503067,33.8022542 C289.08418,34.0471963 285.847002,28.7483417 285.403578,28.9492295 C284.961905,29.1465928 286.718078,35.1080245 286.253621,35.2595714 C285.794422,35.4111183 283.733285,29.5483683 283.254807,29.6488122 C282.783339,29.7510182 283.261818,35.9485811 282.772823,35.9996841 C282.296098,36.0507871 281.491623,29.8849434 281.000876,29.8849434 C280.510129,29.8849434 279.705655,36.0507871 279.225424,35.9996841 C278.738182,35.9485811 279.216661,29.7510182 278.745193,29.6488122 C278.266715,29.5483683 276.203825,35.4111183 275.746379,35.2595714 C275.280169,35.1080245 277.038095,29.1465928 276.596422,28.9492295 C276.151245,28.7483417 272.914068,34.0471963 272.49518,33.8022542 C272.07454,33.5590743 275.029538,28.0963377 274.638693,27.8091034 C274.244342,27.5201071 269.98536,32.0277459 269.624311,31.7017439 C269.263261,31.3739797 273.278623,26.6460692 272.952626,26.2830615 C272.62663,25.9200539 267.533378,29.4444001 267.247693,29.0496733 C266.962008,28.6549465 271.86422,24.8645122 271.618846,24.4415906 C271.378731,24.0204312 265.665034,26.4028893 265.466983,25.9552973 C265.270684,25.5112297 270.851178,22.8327266 270.700448,22.3657507 C270.551472,21.9040613 264.467962,23.0318521 264.36806,22.552541 C264.268158,22.0785165 270.283314,20.6317723 270.230734,20.1418882 C270.181659,19.660815 264,19.4934085 264,19 C264,18.5065916 270.181659,18.3391851 270.230734,17.8581119 C270.283314,17.3682277 264.268158,15.9214836 264.36806,15.447459 C264.469715,14.9663858 270.551472,16.0959388 270.700448,15.6342494 C270.851178,15.1672735 265.270684,12.4887704 265.466983,12.0447028 C265.665034,11.5971108 271.378731,13.9795688 271.620599,13.5584095 C271.86422,13.1354879 266.962008,9.34505355 267.247693,8.95032677 C267.533378,8.55559999 272.628383,12.0799462 272.952626,11.7169386 C273.278623,11.3539309 269.263261,6.62602043 269.624311,6.29825623 C269.98536,5.97049203 274.244342,10.4781309 274.638693,10.1908966 C275.03129,9.90366242 272.07454,4.44092577 272.496933,4.19774588 C272.914068,3.95280381 276.151245,9.25165837 276.596422,9.05077064 C277.038095,8.85340725 275.281922,2.8919756 275.746379,2.74042871 C276.203825,2.590644 278.266715,8.45163178 278.745193,8.35118791 C279.216661,8.24898187 278.738182,2.05141902 279.225424,2.000316 C279.705655,1.94921298 280.510129,8.11329454 281.000876,8.11329454 C281.491623,8.11329454 282.296098,1.94921298 282.772823,2.000316 C283.261818,2.05141902 282.783339,8.24898187 283.254807,8.35118791 C283.733285,8.45163178 285.794422,2.590644 286.253621,2.74042871 C286.718078,2.8919756 284.963658,8.85340725 285.403578,9.05077064 C285.848755,9.25165837 289.08418,3.95280381 289.503067,4.19774588 C289.92546,4.44268794 286.970462,9.90366242 287.36306,10.1908966 C287.755658,10.479893 292.016393,5.9722542 292.375689,6.29825623 C292.736739,6.62602043 288.721377,11.3539309 289.047374,11.7169386 C289.371617,12.0799462 294.466622,8.55559999 294.752307,8.95032677 C295.039744,9.34505355 290.13578,13.1354879 290.379401,13.5584095 C290.621269,13.9795688 296.334966,11.5971108 296.533017,12.0447028 C296.729316,12.4887704 291.150575,15.1672735 291.301304,15.6342494 C291.450281,16.0959388 297.530285,14.968148 297.63194,15.447459 C297.731842,15.9214836 291.716686,17.3682277 291.767514,17.8581119 C291.818341,18.3391851 298,18.5065916 298,19" id="Fill-25" fill="#1D1D1B"></path>
            <path d="M278.75124,29.422954 C278.765148,29.422954 278.779056,29.4247018 278.791226,29.4264496 C279.088511,29.491119 279.131973,30.17976 279.133712,32.6896292 C279.133712,33.8029905 279.133712,35.2938808 279.258884,35.6696621 C279.453597,35.330585 279.754359,33.8956249 279.980365,32.8242114 C280.503656,30.3335681 280.689676,29.6589097 281.000869,29.6589097 C281.312062,29.6589097 281.496344,30.3335681 282.019635,32.8242114 C282.245641,33.8956249 282.546403,35.330585 282.741116,35.6696621 C282.866288,35.2938808 282.866288,33.8029905 282.866288,32.6896292 C282.868027,30.17976 282.911489,29.491119 283.207036,29.4264496 C283.509536,29.3652759 283.83116,29.9822563 284.855141,32.3033611 C285.298461,33.3066096 285.891292,34.6506831 286.153807,34.942569 C286.19727,34.5510574 285.887815,33.0986191 285.658332,32.0114752 C285.135041,29.5505448 285.032469,28.8653995 285.31063,28.7413043 C285.594007,28.6154612 286.03385,29.1520419 287.515059,31.2004868 C288.158306,32.0918749 289.022345,33.2856358 289.340492,33.516348 C289.300506,33.1230886 288.698982,31.7685282 288.248709,30.7600362 C287.224728,28.4564096 286.981337,27.8062207 287.229943,27.6244474 C287.480288,27.4444219 288.019226,27.8743856 289.888122,29.568023 C290.705221,30.3073508 291.798742,31.2966168 292.156875,31.4556685 C292.038656,31.0798872 291.171141,29.8826306 290.522677,28.9894947 C289.044946,26.9462933 288.674643,26.3607737 288.879787,26.1318093 C289.084931,25.9028449 289.70384,26.212209 291.876975,27.4776305 C292.827939,28.0316894 294.104004,28.7745128 294.488214,28.8531647 C294.293501,28.5123399 293.201718,27.5230738 292.386358,26.7854939 C290.517462,25.0918565 290.03068,24.5954756 290.185407,24.3263114 C290.338395,24.0606428 291.005983,24.2354247 293.389477,25.0167002 C294.43432,25.3610207 295.833819,25.8189495 296.230199,25.8189495 L296.231937,25.8189495 C295.971161,25.5270636 294.70205,24.7912315 293.754564,24.242416 C291.569259,22.9752466 290.992074,22.5907263 291.087692,22.2953447 C291.179833,22.0034588 291.868282,22.0331718 294.356087,22.2953447 C295.453086,22.4124487 296.927341,22.5697525 297.311551,22.4823615 C296.995142,22.2516492 295.604336,21.8007117 294.568185,21.4651303 C292.160352,20.6838549 291.513627,20.4286732 291.54492,20.1175612 C291.576213,19.8134406 292.252493,19.6998323 294.731605,19.4376593 C295.839035,19.3223032 297.32372,19.1649994 297.674899,18.9989565 C297.32372,18.8329137 295.839035,18.6773577 294.731605,18.5602538 C292.252493,18.2998286 291.576213,18.1844725 291.54492,17.8803519 C291.513627,17.5709877 292.160352,17.3158061 294.566447,16.5345306 C295.604336,16.1972014 296.995142,15.7462638 297.311551,15.5155516 C296.925602,15.4299085 295.453086,15.5854644 294.356087,15.7025684 C291.868282,15.9647413 291.179833,15.9944543 291.087692,15.7043162 C290.992074,15.4071868 291.569259,15.0226664 293.754564,13.7572449 C294.70205,13.2084295 295.971161,12.4725973 296.233676,12.1789636 L296.230199,12.1789636 C295.833819,12.1789636 294.43432,12.6368924 293.389477,12.9812129 C291.005983,13.7642362 290.338395,13.9390181 290.185407,13.6716017 C290.03068,13.4024375 290.517462,12.9060566 292.386358,11.214167 C293.203457,10.4748392 294.293501,9.48732105 294.488214,9.14474836 C294.104004,9.22514807 292.829677,9.9679715 291.876975,10.5220304 C289.70384,11.7874519 289.08667,12.096816 288.879787,11.8678516 C288.674643,11.6388873 289.046684,11.0516198 290.524416,9.00841841 C291.172879,8.1170303 292.038656,6.91977372 292.156875,6.54399246 C291.798742,6.70129624 290.705221,7.69231008 289.888122,8.43163787 C288.019226,10.1235275 287.47855,10.5534911 287.229943,10.3734657 C286.981337,10.1916924 287.224728,9.54325128 288.248709,7.23962475 C288.698982,6.22938489 289.300506,4.87657234 289.340492,4.48331288 C289.022345,4.71227728 288.160045,5.90778604 287.515059,6.79917415 C286.035588,8.84761899 285.595746,9.38419968 285.31063,9.25660883 C285.032469,9.13251362 285.135041,8.44911607 285.658332,5.98643793 C285.887815,4.90104182 286.19727,3.44685572 286.153807,3.05534408 C285.891292,3.34722999 285.298461,4.69130344 284.855141,5.69629984 C283.83116,8.01740457 283.506059,8.63438497 283.207036,8.56971564 C282.911489,8.50679412 282.868027,7.81990093 282.866288,5.30828384 C282.866288,4.19492261 282.866288,2.70228448 282.741116,2.32825103 C282.546403,2.66732808 282.245641,4.10228816 282.019635,5.17370171 C281.496344,7.66609279 281.312062,8.33900342 281.000869,8.33900342 C280.689676,8.33900342 280.503656,7.66609279 279.980365,5.17370171 C279.754359,4.10228816 279.453597,2.66732808 279.258884,2.32825103 C279.133712,2.70228448 279.133712,4.19492261 279.133712,5.30828384 C279.131973,7.81990093 279.088511,8.50679412 278.791226,8.56971564 C278.488725,8.63788061 278.16884,8.01565675 277.144859,5.69455202 C276.701539,4.69130344 276.108708,3.34722999 275.846193,3.05534408 C275.80273,3.44685572 276.110446,4.90104182 276.341668,5.98643793 C276.864959,8.44911607 276.967531,9.13251362 276.687631,9.25660883 C276.407731,9.38419968 275.964412,8.84761899 274.484941,6.79917415 C273.841694,5.90603822 272.979394,4.71227728 272.661247,4.48331288 C272.701232,4.87482452 273.301018,6.22938489 273.751291,7.23962475 C274.777011,9.54325128 275.018663,10.1916924 274.770057,10.3734657 C274.519712,10.555239 273.980774,10.1235275 272.111878,8.42989005 C271.296518,7.69056226 270.201258,6.70129624 269.843125,6.54399246 C269.961344,6.91977372 270.828859,8.11528248 271.475584,9.00841841 C272.955054,11.0516198 273.325357,11.6371394 273.120213,11.8678516 C272.915069,12.096816 272.297898,11.7874519 270.124764,10.5220304 C269.172061,9.9679715 267.897735,9.22340025 267.513525,9.14474836 C267.706499,9.48557323 268.798282,10.4748392 269.613642,11.214167 C271.484277,12.9060566 271.96932,13.4024375 271.814593,13.6716017 C271.661605,13.9372703 270.994017,13.7642362 268.610523,12.9812129 C267.56568,12.6368924 266.167919,12.1789636 265.769801,12.1789636 L265.768063,12.1789636 C266.028839,12.4708495 267.29795,13.2084295 268.247175,13.7572449 C270.430741,15.0226664 271.009664,15.4071868 270.912308,15.7025684 C270.820167,15.9944543 270.131718,15.9647413 267.645651,15.7025684 C266.545176,15.5854644 265.072659,15.4299085 264.688449,15.5155516 C265.006596,15.7462638 266.397402,16.1972014 267.431815,16.5327828 C269.839648,17.3158061 270.486373,17.5709877 270.45508,17.8803519 C270.423787,18.1844725 269.747507,18.2998286 267.268395,18.5602538 C266.160965,18.6773577 264.67628,18.8329137 264.325101,18.9989565 C264.67628,19.1649994 266.160965,19.3223032 267.268395,19.4376593 C269.747507,19.6998323 270.423787,19.8134406 270.456819,20.1175612 C270.486373,20.4286732 269.839648,20.6838549 267.433553,21.4633825 C266.397402,21.8007117 265.006596,22.2516492 264.688449,22.4823615 C265.074398,22.5680046 266.545176,22.4124487 267.643913,22.2953447 C270.131718,22.0331718 270.820167,22.0034588 270.912308,22.2953447 C271.009664,22.5907263 270.430741,22.9752466 268.245436,24.242416 C267.29795,24.7912315 266.028839,25.5270636 265.766324,25.8189495 L265.769801,25.8189495 C266.167919,25.8189495 267.56568,25.3592729 268.610523,25.0167002 C270.994017,24.2354247 271.661605,24.0623906 271.814593,24.3263114 C271.96932,24.5954756 271.484277,25.0918565 269.613642,26.7854939 C268.798282,27.5230738 267.706499,28.5123399 267.511786,28.8531647 C267.895996,28.772765 269.172061,28.0316894 270.123025,27.4776305 C272.29616,26.212209 272.915069,25.901097 273.120213,26.1300614 C273.325357,26.3607737 272.955054,26.9462933 271.475584,28.9877469 C270.828859,29.8826306 269.961344,31.0798872 269.843125,31.4556685 C270.201258,31.2966168 271.294779,30.3073508 272.111878,29.568023 C273.979036,27.8761334 274.519712,27.4444219 274.770057,27.6244474 C275.018663,27.8062207 274.775272,28.4564096 273.751291,30.7582883 C273.301018,31.7685282 272.699494,33.1230886 272.659508,33.516348 C272.977655,33.2856358 273.841694,32.0918749 274.484941,31.2004868 C275.964412,29.1520419 276.405993,28.6172091 276.687631,28.7413043 C276.967531,28.8653995 276.864959,29.5505448 276.341668,32.0114752 C276.110446,33.0986191 275.80273,34.5510574 275.846193,34.942569 C276.106969,34.6506831 276.701539,33.3066096 277.144859,32.3033611 C278.123639,30.0871255 278.459171,29.422954 278.75124,29.422954 M279.248453,36 C279.239761,36 279.232807,36 279.225853,35.9982522 C278.905967,35.9632958 278.859027,35.26242 278.859027,32.6896292 C278.859027,31.5675289 278.859027,30.0539169 278.726901,29.7270746 C278.473079,29.9717694 277.85417,31.3752687 277.395204,32.4152215 C276.369484,34.7398219 276.049599,35.3568023 275.74536,35.2571766 C275.441121,35.1575508 275.540216,34.4636664 276.073938,31.9537971 C276.308636,30.8526706 276.623306,29.3687716 276.562458,29.0209554 C276.263435,29.2062243 275.369842,30.4436808 274.70747,31.3612862 C273.214092,33.4254614 272.772511,33.9620421 272.496088,33.8012427 C272.217927,33.6386954 272.461318,32.983263 273.500946,30.6464279 C273.959912,29.6152142 274.578821,28.2256974 274.589252,27.8726378 C274.258935,27.9932374 273.132382,29.0139642 272.294421,29.772518 C270.404663,31.4836336 269.862249,31.9153451 269.624073,31.6986154 C269.385898,31.4836336 269.757938,30.8928705 271.254794,28.8269474 C271.915427,27.9128377 272.80902,26.6788769 272.894207,26.3363042 C272.546505,26.3852431 271.233932,27.1490404 270.260367,27.715334 C268.059416,28.996486 267.435292,29.3093457 267.247533,29.0471727 C267.059774,28.7884954 267.544818,28.2886189 269.431099,26.580999 C270.26906,25.8206973 271.39909,24.7982227 271.55034,24.4801195 C271.202638,24.45565 269.763154,24.9293092 268.697448,25.2788732 C266.27223,26.0741312 265.599427,26.2489132 265.467301,25.9535316 C265.336913,25.6616457 265.914097,25.2753775 268.109833,24.0029647 C269.086874,23.4349233 270.40814,22.671126 270.623715,22.3914748 C270.286445,22.2935969 268.787851,22.4526485 267.673467,22.5697525 C265.133507,22.8389167 264.436365,22.8686296 264.368564,22.5505264 C264.3025,22.2394145 264.945748,21.982485 267.348366,21.2012095 C268.429718,20.8516456 269.881372,20.3797342 270.15258,20.1507698 C269.841387,19.9864747 268.348008,19.829171 267.23884,19.712067 C264.690188,19.4429028 264,19.324051 264,18.9989565 C264,18.6738621 264.690188,18.5550103 267.23884,18.2858461 C268.348008,18.1704899 269.841387,18.0114383 270.15258,17.8471433 C269.881372,17.6181789 268.42798,17.1462675 267.348366,16.7949557 C264.945748,16.0154281 264.3025,15.7602464 264.368564,15.4473867 C264.436365,15.1310313 265.133507,15.1589964 267.675206,15.4281606 C268.787851,15.5452646 270.286445,15.7043162 270.623715,15.6081861 C270.40814,15.3285349 269.086874,14.5629898 268.109833,13.9949484 C265.914097,12.7225355 265.336913,12.3362674 265.467301,12.0443815 C265.599427,11.7507477 266.27223,11.9220341 268.69571,12.7190399 C269.763154,13.0703517 271.202638,13.5387674 271.55034,13.5177936 C271.39909,13.1979425 270.26906,12.1754679 269.431099,11.418662 C267.544818,9.70929416 267.059774,9.21116551 267.249271,8.95074036 C267.435292,8.68856738 268.059416,8.99967931 270.262106,10.2825791 C271.23567,10.8506205 272.546505,11.6144178 272.894207,11.6616089 C272.80902,11.3190362 271.915427,10.0868232 271.254794,9.17096566 C269.757938,7.1032948 269.385898,6.51427952 269.624073,6.29929768 C269.862249,6.08256802 270.406402,6.51602734 272.294421,8.22714295 C273.132382,8.98394894 274.258935,10.0064235 274.589252,10.1252753 C274.578821,9.77221568 273.959912,8.38269892 273.500946,7.35323304 C272.461318,5.01465011 272.219666,4.35921767 272.496088,4.19667043 C272.77425,4.03761883 273.215831,4.57245169 274.70747,6.63662691 C275.369842,7.55423232 276.263435,8.79168875 276.564197,8.97870548 C276.623306,8.63088933 276.308636,7.14524248 276.073938,6.04411599 C275.540216,3.53424672 275.441121,2.84036224 275.74536,2.74073651 C276.051337,2.6428586 276.369484,3.259839 277.395204,5.58269155 C277.85417,6.62439217 278.473079,8.02614367 278.726901,8.27083845 C278.859027,7.94399614 278.859027,6.43038417 278.859027,5.30828384 C278.859027,2.73549305 278.905967,2.0346173 279.225853,2.00140873 C279.540523,1.96470451 279.728281,2.63586732 280.248095,5.11777148 C280.482794,6.23637617 280.800941,7.7464925 281.000869,8.03488277 C281.199059,7.7464925 281.517206,6.23637617 281.751905,5.11777148 C282.271719,2.63586732 282.456,1.96820015 282.772409,2.00140873 C283.094033,2.0346173 283.139234,2.73549305 283.140973,5.30828384 C283.140973,6.43038417 283.140973,7.94399614 283.273099,8.27083845 C283.526921,8.02614367 284.147569,6.62439217 284.604796,5.58443937 C285.630516,3.25809118 285.953878,2.6428586 286.252902,2.74073651 C286.560618,2.84211006 286.459784,3.53424672 285.926062,6.04411599 C285.691364,7.14524248 285.376694,8.63088933 285.437542,8.97870548 C285.736565,8.79168875 286.630158,7.55423232 287.294268,6.63662691 C288.784169,4.57245169 289.227489,4.03587101 289.503912,4.19667043 C289.782073,4.35921767 289.538682,5.01465011 288.499054,7.35148522 C288.041826,8.38269892 287.422918,9.77221568 287.40901,10.1252753 C287.741065,10.0064235 288.867618,8.98394894 289.705579,8.22714295 C291.595337,6.51602734 292.13949,6.08256802 292.375927,6.29929768 C292.614102,6.51427952 292.2438,7.1032948 290.745206,9.17096566 C290.084573,10.0868232 289.19098,11.3190362 289.105793,11.6616089 C289.455233,11.6144178 290.766068,10.8506205 291.739633,10.2825791 C293.940584,9.00142713 294.564708,8.6903152 294.752467,8.95074036 C294.941965,9.21116551 294.456921,9.70929416 292.568901,11.418662 C291.732679,12.1772158 290.602649,13.1996904 290.44966,13.5177936 C290.7991,13.5440109 292.238585,13.0703517 293.30429,12.7190399 C295.72777,11.9237819 296.402311,11.7507477 296.532699,12.0443815 C296.663087,12.3380152 296.087641,12.7225355 293.891906,13.9949484 C292.913126,14.5629898 291.593598,15.3285349 291.378023,15.6081861 C291.713555,15.7043162 293.212149,15.5470124 294.326533,15.4281606 C296.868231,15.1589964 297.565373,15.1310313 297.631436,15.4473867 C297.695761,15.7602464 297.054252,16.0154281 294.651634,16.7967036 C293.57202,17.1462675 292.116889,17.6181789 291.84742,17.8471433 C292.158613,18.0114383 293.651992,18.1704899 294.76116,18.2858461 C297.309812,18.5550103 298,18.6738621 298,18.9989565 C298,19.324051 297.309812,19.4429028 294.76116,19.712067 C293.651992,19.829171 292.158613,19.9864747 291.84742,20.1507698 C292.116889,20.3797342 293.57202,20.8516456 294.651634,21.2029573 C297.05599,21.982485 297.695761,22.2394145 297.631436,22.5505264 C297.565373,22.8668818 296.868231,22.8389167 294.326533,22.5697525 C293.212149,22.4526485 291.713555,22.2935969 291.378023,22.3914748 C291.593598,22.671126 292.913126,23.4349233 293.891906,24.0029647 C296.087641,25.2753775 296.663087,25.6616457 296.532699,25.9535316 C296.400573,26.2489132 295.72777,26.0741312 293.30429,25.2788732 C292.236846,24.9293092 290.7991,24.4626413 290.44966,24.4801195 C290.602649,24.7982227 291.732679,25.8224451 292.568901,26.580999 C294.455182,28.2886189 294.941965,28.7884954 294.752467,29.0489205 C294.564708,29.3093457 293.940584,28.9982338 291.739633,27.715334 C290.766068,27.1490404 289.453495,26.3852431 289.105793,26.3363042 C289.19098,26.6788769 290.084573,27.9128377 290.745206,28.8269474 C292.242062,30.8946183 292.614102,31.4836336 292.375927,31.7003632 C292.137751,31.9153451 291.593598,31.4818857 289.705579,29.772518 C288.867618,29.0139642 287.741065,27.9932374 287.40901,27.8726378 C287.421179,28.2256974 288.041826,29.6152142 288.497316,30.6464279 C289.538682,32.983263 289.780334,33.6404432 289.503912,33.8012427 C289.22575,33.9620421 288.784169,33.4254614 287.29253,31.3612862 C286.630158,30.4436808 285.736565,29.2062243 285.437542,29.0209554 C285.376694,29.3687716 285.691364,30.8526706 285.926062,31.9537971 C286.459784,34.4636664 286.558879,35.1575508 286.252902,35.2571766 C285.95214,35.3550545 285.630516,34.7398219 284.604796,32.4152215 C284.147569,31.3752687 283.526921,29.9717694 283.273099,29.7270746 C283.140973,30.0539169 283.140973,31.5675289 283.140973,32.6896292 C283.139234,35.26242 283.094033,35.9632958 282.772409,35.9982522 C282.461216,36.038452 282.271719,35.3620458 281.751905,32.8818894 C281.517206,31.7615369 281.199059,30.2514206 281.000869,29.9630303 C280.800941,30.2514206 280.482794,31.7615369 280.248095,32.8818894 C279.738712,35.3061155 279.550954,36 279.248453,36" id="Fill-27" fill="#1D1D1B"></path>
            <g id="Group-31">
                <mask id="mask-2" fill="white">
                    <use xlink:href="#path-1"></use>
                </mask>
                <g id="Clip-30"></g>
                <path d="M18.1366952,1.28178571 C8.44269524,1.28178571 0.554647619,9.16807143 0.554647619,18.8638333 C0.554647619,28.5578333 8.44269524,36.444119 18.1366952,36.444119 C27.8306952,36.444119 35.7187429,28.5578333 35.7187429,18.8638333 C35.7187429,9.16807143 27.8306952,1.28178571 18.1366952,1.28178571 M18.1366952,36.999119 C8.13612381,36.999119 -0.000352380952,28.8626429 -0.000352380952,18.8638333 C-0.000352380952,8.8632619 8.13612381,0.726785714 18.1366952,0.726785714 C28.1390286,0.726785714 36.2737429,8.8632619 36.2737429,18.8638333 C36.2737429,28.8626429 28.1390286,36.999119 18.1366952,36.999119" id="Fill-29" fill="#1D1D1B" mask="url(#mask-2)"></path>
            </g>
            <mask id="mask-4" fill="white">
                <use xlink:href="#path-3"></use>
            </mask>
            <g id="Clip-33"></g>
            <polygon id="Fill-32" fill="#1D1D1B" mask="url(#mask-4)" points="0 19.315 36 19.315 36 18.685 0 18.685"></polygon>
            <path d="M194.000874,1.55083305 C184.378843,1.55083305 176.552528,9.37790839 176.552528,19.0008743 C176.552528,28.6220916 184.378843,36.449167 194.000874,36.449167 C203.621157,36.449167 211.44922,28.6220916 211.44922,19.0008743 C211.44922,9.37790839 203.621157,1.55083305 194.000874,1.55083305 M194.000874,37 C184.074603,37 176,28.9246126 176,19.0008743 C176,9.07538738 184.074603,1 194.000874,1 C203.925397,1 212,9.07538738 212,19.0008743 C212,28.9246126 203.925397,37 194.000874,37" id="Fill-34" fill="#1D1D1B" mask="url(#mask-4)"></path>
            <path d="M211.521635,19 C207.910246,12.5661741 201.195619,8.57077176 194.000876,8.57077176 C186.804381,8.57077176 180.089754,12.5661741 176.478365,19 L176,18.7146141 C179.711268,12.1055829 186.606376,8 194.000876,8 C201.393624,8 208.290484,12.1055829 212,18.7146141 L211.521635,19 Z" id="Fill-35" fill="#1D1D1B" mask="url(#mask-4)"></path>
            <path d="M237,1.55083305 C227.377501,1.55083305 219.550806,9.37790839 219.550806,19.0008743 C219.550806,28.6220916 227.377501,36.449167 237,36.449167 C246.62075,36.449167 254.449194,28.6220916 254.449194,19.0008743 C254.449194,9.37790839 246.62075,1.55083305 237,1.55083305 M237,37 C227.073247,37 219,28.9246126 219,19.0008743 C219,9.07538738 227.073247,1 237,1 C246.925005,1 255,9.07538738 255,19.0008743 C255,28.9246126 246.925005,37 237,37" id="Fill-36" fill="#1D1D1B" mask="url(#mask-4)"></path>
            <path d="M249,19.5 C249,25.8519284 243.850562,31 237.50088,31 C231.147678,31 226,25.8519284 226,19.5 C226,13.1480716 231.147678,8 237.50088,8 C243.850562,8 249,13.1480716 249,19.5" id="Fill-37" fill="#1D1D1B" mask="url(#mask-4)"></path>
            <path d="M237.500859,7.56489576 C231.456549,7.56489576 226.541358,12.6937906 226.541358,18.9991033 C226.541358,25.3062094 231.456549,30.4351042 237.500859,30.4351042 C243.543451,30.4351042 248.458642,25.3062094 248.458642,18.9991033 C248.458642,12.6937906 243.543451,7.56489576 237.500859,7.56489576 M237.500859,31 C231.159232,31 226,25.6164537 226,18.9991033 C226,12.3835463 231.159232,7 237.500859,7 C243.840768,7 249,12.3835463 249,18.9991033 C249,25.6164537 243.840768,31 237.500859,31" id="Fill-38" fill="#1D1D1B" mask="url(#mask-4)"></path>
            <path d="M198.280741,8.51187211 C197.124493,8.25773842 195.368123,8 193.004591,8 C191.286939,8 189.544648,8.37308988 188.300406,8.71914427 C184.5624,10.6638978 182,14.6345114 182,19.2215344 C182,25.7262754 187.149438,31 193.50088,31 C199.852322,31 205,25.7262754 205,19.2215344 C205,14.4650889 202.244013,10.3701121 198.280741,8.51187211" id="Fill-39" fill="#1D1D1B" mask="url(#mask-4)"></path>
        </g>
    </g>
</svg>