<?xml version="1.0" encoding="UTF-8"?>
<svg width="149px" height="171px" viewBox="0 0 149 171" version="1.1" xmlns="http://www.w3.org/2000/svg" xmlns:xlink="http://www.w3.org/1999/xlink">
    <!-- Generator: Sketch 52.5 (67469) - http://www.bohemiancoding.com/sketch -->
    <title>Group 2</title>
    <desc>Created with Sketch.</desc>
    <g id="Page-1" stroke="none" stroke-width="1" fill="none" fill-rule="evenodd">
        <g id="Group-2">
            <path d="M153,144.67798 C153,150.368432 148.345286,155 142.620101,155 C136.89774,155 132.240202,150.368432 132.240202,144.67798 L132.240202,77.6283857 L129.41574,77.6283857 L129.41574,144.67798 C129.41574,150.368432 124.761026,155 119.04149,155 C113.316305,155 108.661591,150.368432 108.661591,144.67798 L108.661591,77.6283857 L105.837129,77.6283857 L105.837129,144.67798 C105.837129,150.368432 101.17959,155 95.4572296,155 C89.734869,155 85.0773306,150.368432 85.0773306,144.67798 L85.0773306,77.6283857 L82.2528683,77.6283857 L82.2528683,144.67798 C82.2528683,150.368432 77.5981545,155 71.8757938,155 C66.1534332,155 61.4987193,150.368432 61.4987193,144.67798 L61.4987193,77.6283857 L58.674257,77.6283857 L58.674257,144.67798 C58.674257,150.368432 54.0167187,155 48.2943581,155 C42.5719975,155 37.9172836,150.368432 37.9172836,144.67798 L37.9172836,77.6283857 L35.0928213,77.6283857 L35.0928213,144.67798 C35.0928213,150.368432 30.435283,155 24.7129224,155 C18.9905617,155 14.3330234,150.368432 14.3330234,144.67798 L14.3330234,57.6837154 C14.3330234,39.1686799 5.57719027,22.6871526 -8,12 L128.766113,12 C143.377057,22.0214876 153,38.7389468 153,57.6837154 L153,144.67798 Z" id="Fill-3" fill="#F19496" transform="translate(72.500000, 83.500000) rotate(-90.000000) translate(-72.500000, -83.500000) "></path>
            <path d="M157.208528,146.834968 C157.208528,152.540285 152.608182,157.18395 146.949868,157.18395 C141.294345,157.18395 136.691208,152.540285 136.691208,146.834968 L136.691208,79.6102323 L133.899736,79.6102323 L133.899736,146.834968 C133.899736,152.540285 129.299389,157.18395 123.646658,157.18395 C117.988344,157.18395 113.387998,152.540285 113.387998,146.834968 L113.387998,79.6102323 L110.596526,79.6102323 L110.596526,146.834968 C110.596526,152.540285 105.993389,157.18395 100.337866,157.18395 C94.6823435,157.18395 90.079206,152.540285 90.079206,146.834968 L90.079206,79.6102323 L87.2877338,79.6102323 L87.2877338,146.834968 C87.2877338,152.540285 82.6873878,157.18395 77.0318652,157.18395 C71.3763427,157.18395 66.7759966,152.540285 66.7759966,146.834968 L66.7759966,79.6102323 L63.9845245,79.6102323 L63.9845245,146.834968 C63.9845245,152.540285 59.3813869,157.18395 53.7258644,157.18395 C48.0703418,157.18395 43.4699958,152.540285 43.4699958,146.834968 L43.4699958,79.6102323 L40.6785236,79.6102323 L40.6785236,146.834968 C40.6785236,152.540285 36.0753861,157.18395 30.4198635,157.18395 C24.764341,157.18395 20.1612034,152.540285 20.1612034,146.834968 L20.1612034,59.6134641 C20.1612034,41.0500652 11.5076398,24.5254862 -1.90817526,13.8104175 L133.257697,13.8104175 C147.697982,23.8580824 157.208528,40.6192096 157.208528,59.6134641 L157.208528,146.834968 Z M134.234712,11.0225284 L134.201215,11 L128.836005,11 L-5.69062,11 L-6.28520357,11 L-11,11 C5.90236377,20.5238797 17.3697313,38.7352724 17.3697313,59.6134641 L17.3697313,146.834968 C17.3697313,154.094744 23.2234484,160 30.4198635,160 C35.5059258,160 39.9192432,157.04878 42.0742597,152.75712 C44.2236932,157.04878 48.6398021,160 53.7258644,160 C58.8119266,160 63.2280355,157.04878 65.3802605,152.75712 C67.5296941,157.04878 71.945803,160 77.0318652,160 C82.1179275,160 86.5340364,157.04878 88.6834699,152.75712 C90.8384864,157.04878 95.2518038,160 100.337866,160 C105.423928,160 109.840037,157.04878 111.992262,152.75712 C114.141696,157.04878 118.557805,160 123.646658,160 C128.729929,160 133.146038,157.04878 135.295472,152.75712 C137.450488,157.04878 141.863806,160 146.949868,160 C154.146283,160 160,154.094744 160,146.834968 L160,59.6134641 C160,39.3829638 149.755297,21.5292094 134.234712,11.0225284 Z" id="Fill-18" fill="#1D1D1B" transform="translate(74.500000, 85.500000) rotate(-90.000000) translate(-74.500000, -85.500000) "></path>
        </g>
    </g>
</svg>