<svg xmlns="http://www.w3.org/2000/svg" viewBox="0 0 264.81 30.02"><defs><style>.cls-1{fill:#1d1d1b;}</style></defs><title>Asset 1</title><g id="Layer_2" data-name="Layer 2"><g id="Capa_1" data-name="Capa 1"><path class="cls-1" d="M4.47,29A12,12,0,0,1,.2,26.16V21.27a16.75,16.75,0,0,0,9.14,2.46,13.23,13.23,0,0,0,5.29-.85c1.27-.57,1.91-1.36,1.91-2.37a2.84,2.84,0,0,0-1.71-2.42A21,21,0,0,0,9.5,16.22a38.19,38.19,0,0,1-4.07-1.17,14.18,14.18,0,0,1-2.91-1.47A5.32,5.32,0,0,1,.6,11.37,7.49,7.49,0,0,1,0,8.23a7.6,7.6,0,0,1,2.54-6A9.35,9.35,0,0,1,9,0a14,14,0,0,1,9.19,3.34V8a22.09,22.09,0,0,0-9-1.71A12.13,12.13,0,0,0,4.67,7C3.6,7.45,3.06,8.11,3.06,9a2.11,2.11,0,0,0,.88,1.62A8.45,8.45,0,0,0,6.4,11.93c1.06.39,2.47.82,4.22,1.27,1.13.26,2.12.54,2.94.81A15.62,15.62,0,0,1,16,15.11a8,8,0,0,1,2,1.47,5.86,5.86,0,0,1,1.21,2,7.5,7.5,0,0,1,.46,2.72,8,8,0,0,1-2.74,6.28A10.46,10.46,0,0,1,9.74,30,14,14,0,0,1,4.47,29Z"/><path class="cls-1" d="M27,.6H30.3V18.17a4.76,4.76,0,0,0,1.86,4,8.38,8.38,0,0,0,5.21,1.44,8.36,8.36,0,0,0,5.21-1.44,4.74,4.74,0,0,0,1.87-4V.6h3.3V18.17c0,3.71-.92,6.61-2.74,8.71A9.63,9.63,0,0,1,37.37,30a9.54,9.54,0,0,1-7.61-3.14c-1.82-2.1-2.72-5-2.72-8.71Z"/><path class="cls-1" d="M73.37,3.2a9.34,9.34,0,0,1,2.84,7.26c0,3.15-.84,5.62-2.54,7.39a9.26,9.26,0,0,1-7,2.67H60.35V30H57.09V.6h8.35C68.83.6,71.48,1.47,73.37,3.2Zm-.18,7.3q0-4.1-7.51-4.1H60.35v8.31h5.33Q73.19,14.71,73.19,10.5Z"/><path class="cls-1" d="M102,24.21V30H84.09V.6h17.37V6.8H87.19v5.92h13.48v5.13H87.19v6.36Z"/><path class="cls-1" d="M119,19.6h-4.85V30h-3.26V.6h9.39a10,10,0,0,1,7.25,2.52,9.3,9.3,0,0,1,2.61,7,9.78,9.78,0,0,1-1.93,6.2,8.38,8.38,0,0,1-5.39,3.06L131.08,30h-4.25Zm1.28-13.16h-6.13v7.44h6.13q6.82,0,6.83-3.74T120.31,6.44Z"/><path class="cls-1" d="M155.3,6.56h-7.83V30h-3.34V6.56h-7.87V.6h19Z"/><path class="cls-1" d="M183.68.6V30H180.3V17.89H166.38V30H163V.6h3.37V11.93H180.3V.6Z"/><path class="cls-1" d="M199.2,6.64V24h3V30h-9.06V24h3V6.64h-3V.6h9.06v6Z"/><path class="cls-1" d="M211.91.6h6.2l8.83,20.23a1.76,1.76,0,0,0,1.82,1.08h1.47V.6h3.38V30h-6.38L218.31,9.34a1.62,1.62,0,0,0-1.67-.95h-1.35V30h-3.38Z"/><path class="cls-1" d="M245,26.08q-3-3.93-3-10.81,0-7.2,3.1-11.23a10.26,10.26,0,0,1,8.63-4,11.28,11.28,0,0,1,5,1.15,13.07,13.07,0,0,1,4.08,3V9a12.71,12.71,0,0,0-2.51-1.43,15.45,15.45,0,0,0-3-.91,15.89,15.89,0,0,0-3.12-.32q-4.46,0-6.8,2.25A8.55,8.55,0,0,0,245,15a8.7,8.7,0,0,0,2.33,6.52q2.33,2.26,6.7,2.26a8.53,8.53,0,0,0,5.29-1.65,5.39,5.39,0,0,0,2.18-4.55v-.67h-9.38V12.72H262.2l2.61,3.41V30h-3.29V24.53h-.2A10.54,10.54,0,0,1,258,28.45,8.21,8.21,0,0,1,253.1,30,9.71,9.71,0,0,1,245,26.08Z"/></g></g></svg>