<?xml version="1.0" encoding="UTF-8"?>
<svg width="150px" height="175px" viewBox="0 0 150 175" version="1.1" xmlns="http://www.w3.org/2000/svg" xmlns:xlink="http://www.w3.org/1999/xlink">
    <!-- Generator: Sketch 52.5 (67469) - http://www.bohemiancoding.com/sketch -->
    <title>Group</title>
    <desc>Created with Sketch.</desc>
    <g id="Page-1" stroke="none" stroke-width="1" fill="none" fill-rule="evenodd">
        <g id="Group">
            <path d="M100.988645,3.02013423 C120.060934,3.02013423 136.890922,12.7078307 146.979866,27.4170923 L146.979866,165.100671 C136.220776,151.434962 119.628309,142.620211 100.988645,142.620211 L13.4088059,142.620211 C7.68005011,142.620211 3.02013423,137.931331 3.02013423,132.170465 C3.02013423,126.409598 7.68005011,121.720719 13.4088059,121.720719 L80.9097234,121.720719 L80.9097234,118.87725 L13.4088059,118.87725 C7.68005011,118.87725 3.02013423,114.191215 3.02013423,108.430348 C3.02013423,102.669481 7.68005011,97.9806018 13.4088059,97.9806018 L80.9097234,97.9806018 L80.9097234,95.1371335 L13.4088059,95.1371335 C7.68005011,95.1371335 3.02013423,90.4510977 3.02013423,84.6902309 C3.02013423,78.9293641 7.68005011,74.2433284 13.4088059,74.2433284 L80.9097234,74.2433284 L80.9097234,71.3998601 L13.4088059,71.3998601 C7.68005011,71.3998601 3.02013423,66.7109808 3.02013423,60.950114 C3.02013423,55.1892472 7.68005011,50.500368 13.4088059,50.500368 L80.9097234,50.500368 L80.9097234,47.6568997 L13.4088059,47.6568997 C7.68005011,47.6568997 3.02013423,42.9708639 3.02013423,37.2071537 C3.02013423,31.4491304 7.68005011,26.7630946 13.4088059,26.7630946 L80.9097234,26.7630946 L80.9097234,23.9196263 L13.4088059,23.9196263 C7.68005011,23.9196263 3.02013423,19.230747 3.02013423,13.4698803 C3.02013423,7.70617 7.68005011,3.02013423 13.4088059,3.02013423 L100.988645,3.02013423 Z" id="Fill-5" fill="#F19496"></path>
            <path d="M101.059346,2.84307476 C120.18144,2.84307476 137.055377,12.5265874 147.170667,27.2366562 L147.170667,164.901179 C136.383481,151.234519 119.747685,142.42383 101.059346,142.42383 L13.2508033,142.42383 C7.50708751,142.42383 2.83500284,137.7356 2.83500284,131.97553 C2.83500284,126.215461 7.50708751,121.527231 13.2508033,121.527231 L80.9279909,121.527231 L80.9279909,118.684156 L13.2508033,118.684156 C7.50708751,118.684156 2.83500284,113.998769 2.83500284,108.238699 C2.83500284,102.47863 7.50708751,97.7903995 13.2508033,97.7903995 L80.9279909,97.7903995 L80.9279909,94.9473248 L13.2508033,94.9473248 C7.50708751,94.9473248 2.83500284,90.2619376 2.83500284,84.5018681 C2.83500284,78.7417986 7.50708751,74.0564114 13.2508033,74.0564114 L80.9279909,74.0564114 L80.9279909,71.2133367 L13.2508033,71.2133367 C7.50708751,71.2133367 2.83500284,66.5251064 2.83500284,60.7650369 C2.83500284,55.0049674 7.50708751,50.3167372 13.2508033,50.3167372 L80.9279909,50.3167372 L80.9279909,47.4736624 L13.2508033,47.4736624 C7.50708751,47.4736624 2.83500284,42.7882752 2.83500284,37.0253626 C2.83500284,31.2681362 7.50708751,26.582749 13.2508033,26.582749 L80.9279909,26.582749 L80.9279909,23.7396743 L13.2508033,23.7396743 C7.50708751,23.7396743 2.83500284,19.051444 2.83500284,13.2913745 C2.83500284,7.52846197 7.50708751,2.84307476 13.2508033,2.84307476 L101.059346,2.84307476 Z M101.059346,-1.42108547e-14 C121.426006,-1.42108547e-14 139.399924,10.4340844 149.97732,26.2415801 C149.98299,26.2529524 149.991495,26.2643247 150,26.275697 L150,174.161074 C140.41202,156.946256 122.078057,145.266905 101.059346,145.266905 L13.2508033,145.266905 C5.94216594,145.266905 1.37633298e-14,139.304977 1.42108547e-14,131.97553 C1.45271427e-14,126.795448 2.96824797,122.300547 7.29162729,120.105693 C2.96824797,117.916526 1.53439018e-14,113.418782 1.56601898e-14,108.238699 C1.59764778e-14,103.058617 2.96824797,98.5608728 7.29162729,96.3688622 C2.96824797,94.1796946 1.67932369e-14,89.6819503 1.71095249e-14,84.5018681 C1.7425813e-14,79.3217859 2.96824797,74.8240416 7.29162729,72.634874 C2.96824797,70.4400203 1.82425721e-14,65.9451191 1.85588601e-14,60.7650369 C1.88751481e-14,55.5849547 2.96824797,51.0872104 7.29162729,48.8951998 C2.96824797,46.7060322 1.96919072e-14,42.2082879 2.00083688e-14,37.0253626 C2.03244832e-14,31.8481235 2.96824797,27.3503792 7.29162729,25.1612117 C2.96824797,22.9663579 2.11412423e-14,18.4714567 2.14575303e-14,13.2913745 C2.19050553e-14,5.96192778 5.94216594,-1.42108547e-14 13.2508033,-1.42108547e-14 L101.059346,-1.42108547e-14 Z" id="Fill-23" fill="#1D1D1B"></path>
        </g>
    </g>
</svg>