<?xml version="1.0" encoding="UTF-8"?>
<svg width="200px" height="36px" viewBox="0 0 200 36" version="1.1" xmlns="http://www.w3.org/2000/svg" xmlns:xlink="http://www.w3.org/1999/xlink">
    <!-- Generator: Sketch 52.5 (67469) - http://www.bohemiancoding.com/sketch -->
    <title>Group 55</title>
    <desc>Created with Sketch.</desc>
    <defs>
        <polygon id="path-1" points="0 0.311655303 8.01127273 0.311655303 8.01127273 11.8181326 0 11.8181326"></polygon>
        <polygon id="path-3" points="0.0921818182 0.311753788 8.16081818 0.311753788 8.16081818 11.8181818 0.0921818182 11.8181818"></polygon>
        <polygon id="path-5" points="0.0353636364 0.311753788 8.104 0.311753788 8.104 11.8181818 0.0353636364 11.8181818"></polygon>
        <polygon id="path-7" points="0.350374332 0.4368 8.09229947 0.4368 8.09229947 11.4829709 0.350374332 11.4829709"></polygon>
        <polygon id="path-9" points="0 35.3404698 200 35.3404698 200 2.61319709 0 2.61319709"></polygon>
    </defs>
    <g id="Page-1" stroke="none" stroke-width="1" fill="none" fill-rule="evenodd">
        <g id="Group-55" transform="translate(0.000000, 0.125483)">
            <g id="Group-3" transform="translate(0.000000, 23.522288)">
                <mask id="mask-2" fill="white">
                    <use xlink:href="#path-1"></use>
                </mask>
                <g id="Clip-2"></g>
                <path d="M8.01127273,8.39529167 C7.53718182,10.4674129 6.23127273,11.8181326 4.28763636,11.8181326 C3.04263636,11.8181326 2.01763636,11.3202917 1.20172727,10.3388902 C0.401727273,9.35896591 -9.09090909e-05,7.92896591 -9.09090909e-05,6.06514015 C-9.09090909e-05,4.20082197 0.401727273,2.77082197 1.20172727,1.79089773 C2.01763636,0.809496212 3.04263636,0.311655303 4.28763636,0.311655303 C6.23127273,0.311655303 7.53718182,1.66188258 8.01127273,3.73449621 L6.78081818,4.13680682 C6.30490909,2.46404167 5.579,1.66188258 4.28763636,1.66188258 C2.44854545,1.66188258 1.35127273,3.092375 1.35127273,6.06514015 C1.35127273,9.03741288 2.44854545,10.4674129 4.28763636,10.4674129 C5.579,10.4674129 6.30490909,9.66377652 6.78081818,7.99347348 L8.01127273,8.39529167 Z" id="Fill-1" fill="#1D1D1B" mask="url(#mask-2)"></path>
            </g>
            <g id="Group-6" transform="translate(10.000000, 23.522288)">
                <mask id="mask-4" fill="white">
                    <use xlink:href="#path-3"></use>
                </mask>
                <g id="Clip-5"></g>
                <path d="M4.12763636,1.66198106 C3.31127273,1.66198106 2.65763636,2.01554167 2.169,2.73792803 C1.67945455,3.44603409 1.44172727,4.55448106 1.44172727,6.06474621 C1.44172727,7.57550379 1.67945455,8.68395076 2.169,9.40781439 C2.65763636,10.1144432 3.31127273,10.4675114 4.12763636,10.4675114 C4.94354545,10.4675114 5.59536364,10.1144432 6.08581818,9.40781439 C6.574,8.68395076 6.81172727,7.57550379 6.81172727,6.06474621 C6.81172727,4.55448106 6.574,3.44603409 6.08581818,2.73792803 C5.59536364,2.01554167 4.94354545,1.66198106 4.12763636,1.66198106 M4.12763636,0.311753788 C5.31263636,0.311753788 6.27809091,0.809594697 7.03490909,1.80675379 C7.79172727,2.78618561 8.16081818,4.21667803 8.16081818,6.06474621 C8.16081818,7.91281439 7.79172727,9.34379924 7.03490909,10.3389886 C6.27809091,11.3203902 5.31263636,11.8182311 4.12763636,11.8182311 C2.94036364,11.8182311 1.97672727,11.3203902 1.22036364,10.3389886 C0.463090909,9.34379924 0.0921818182,7.91281439 0.0921818182,6.06474621 C0.0921818182,4.21667803 0.463090909,2.78618561 1.22036364,1.80675379 C1.97672727,0.809594697 2.94036364,0.311753788 4.12763636,0.311753788" id="Fill-4" fill="#1D1D1B" mask="url(#mask-4)"></path>
            </g>
            <polygon id="Fill-7" fill="#1D1D1B" points="19.0909091 23.522288 26.3636364 23.522288 26.3636364 24.9408423 20.5557538 24.9408423 20.5557538 28.4696384 25.5468312 28.4696384 25.5468312 29.8866407 20.5557538 29.8866407 20.5557538 35.3404698 19.0909091 35.3404698"></polygon>
            <polygon id="Fill-9" fill="#1D1D1B" points="30.9090909 23.522288 38.1818182 23.522288 38.1818182 24.9408423 32.3739357 24.9408423 32.3739357 28.4696384 37.365013 28.4696384 37.365013 29.8866407 32.3739357 29.8866407 32.3739357 35.3404698 30.9090909 35.3404698"></polygon>
            <polygon id="Fill-11" fill="#1D1D1B" points="40.9090909 23.522288 48.0203438 23.522288 48.0203438 24.9408423 42.3191696 24.9408423 42.3191696 28.3346119 47.2208248 28.3346119 47.2208248 29.7510968 42.3191696 29.7510968 42.3191696 33.9219155 48.1818182 33.9219155 48.1818182 35.3404698 40.9090909 35.3404698"></polygon>
            <polygon id="Fill-13" fill="#1D1D1B" points="50 23.522288 57.1117437 23.522288 57.1117437 24.9408423 51.4105695 24.9408423 51.4105695 28.3346119 56.3122247 28.3346119 56.3122247 29.7510968 51.4105695 29.7510968 51.4105695 33.9219155 57.2727273 33.9219155 57.2727273 35.3404698 50 35.3404698"></polygon>
            <path d="M123.217755,24.9408423 L123.217755,28.3506495 L125.75006,28.3506495 C126.943282,28.3506495 127.548674,27.7763989 127.548674,26.6449699 C127.548674,25.515093 126.943282,24.9408423 125.75006,24.9408423 L123.217755,24.9408423 Z M128.345294,35.3404698 L125.08125,29.7697212 L123.217755,29.7697212 L123.217755,35.3404698 L121.818182,35.3404698 L121.818182,23.522288 L125.717375,23.522288 C127.755512,23.522288 128.996542,24.6030174 128.996542,26.6449699 C128.996542,28.3154702 128.217484,29.330497 126.672539,29.6672873 L130,35.3404698 L128.345294,35.3404698 Z" id="Fill-15" fill="#1D1D1B"></path>
            <g id="Group-19" transform="translate(130.909091, 23.522288)">
                <mask id="mask-6" fill="white">
                    <use xlink:href="#path-5"></use>
                </mask>
                <g id="Clip-18"></g>
                <path d="M4.07036364,1.66198106 C3.25445455,1.66198106 2.60081818,2.01554167 2.11218182,2.73792803 C1.62218182,3.44603409 1.38490909,4.55448106 1.38490909,6.06474621 C1.38490909,7.57550379 1.62218182,8.68395076 2.11218182,9.40781439 C2.60081818,10.1144432 3.25445455,10.4675114 4.07036364,10.4675114 C4.88672727,10.4675114 5.53854545,10.1144432 6.029,9.40781439 C6.51718182,8.68395076 6.75445455,7.57550379 6.75445455,6.06474621 C6.75445455,4.55448106 6.51718182,3.44603409 6.029,2.73792803 C5.53854545,2.01554167 4.88672727,1.66198106 4.07036364,1.66198106 M4.07036364,0.311753788 C5.25581818,0.311753788 6.22127273,0.809594697 6.97809091,1.80675379 C7.73490909,2.78618561 8.104,4.21667803 8.104,6.06474621 C8.104,7.91281439 7.73490909,9.34379924 6.97809091,10.3389886 C6.22127273,11.3203902 5.25581818,11.8182311 4.07036364,11.8182311 C2.88354545,11.8182311 1.91990909,11.3203902 1.16309091,10.3389886 C0.406272727,9.34379924 0.0353636364,7.91281439 0.0353636364,6.06474621 C0.0353636364,4.21667803 0.406272727,2.78618561 1.16309091,1.80675379 C1.91990909,0.809594697 2.88354545,0.311753788 4.07036364,0.311753788" id="Fill-17" fill="#1D1D1B" mask="url(#mask-6)"></path>
            </g>
            <path d="M146.819259,25.4478384 L145.300055,30.7640543 L148.336309,30.7640543 L146.819259,25.4478384 Z M146.22829,23.522288 L147.408074,23.522288 L150.909091,35.3404698 L149.630668,35.3404698 L148.744646,32.1831259 L144.893441,32.1831259 L144.007849,35.3404698 L142.727273,35.3404698 L146.22829,23.522288 Z" id="Fill-20" fill="#1D1D1B"></path>
            <path d="M157.720181,26.6413331 C157.261312,25.4866744 156.568262,24.9090922 155.623852,24.9090922 C154.488209,24.9090922 153.766226,25.5691139 153.766226,26.6914037 C153.766226,27.2528015 153.957911,27.6655047 154.326814,27.9123174 C154.710184,28.1606475 155.314172,28.4069544 156.156411,28.6552844 C156.908684,28.870234 157.306521,29.0027441 157.853094,29.3330079 C158.664591,29.7942644 159.048413,30.4537803 159.090909,31.6605327 C159.090909,34.1018544 157.748662,35.3404698 155.669061,35.3404698 C153.676712,35.3404698 152.216019,34.1357405 151.818182,31.9068396 L153.027967,31.3798338 C153.425804,33.0958902 154.310539,33.9531598 155.669061,33.9531598 C156.967907,33.9531598 157.793871,33.2273888 157.793871,31.856769 C157.793871,31.3798338 157.616653,31.0146724 157.424968,30.8007343 C157.320535,30.6859259 157.159592,30.5862905 156.922699,30.4876665 C156.466543,30.2732227 156.199359,30.1751045 155.446634,29.9768451 C154.724651,29.77808 154.369762,29.6622601 153.78024,29.3330079 C152.954277,28.8540496 152.52615,28.1267613 152.466927,26.7414743 C152.466927,25.7992365 152.748577,25.0239006 153.309166,24.4301339 C153.867945,23.8191713 154.636946,23.522288 155.623852,23.522288 C157.292506,23.522288 158.383393,24.5945072 158.856276,25.9980016 L157.720181,26.6413331 Z" id="Fill-22" fill="#1D1D1B"></path>
            <polygon id="Fill-24" fill="#1D1D1B" points="161.818182 24.9408423 161.818182 23.522288 170 23.522288 170 24.9408423 166.596092 24.9408423 166.596092 35.3404698 165.221612 35.3404698 165.221612 24.9408423"></polygon>
            <polygon id="Fill-26" fill="#1D1D1B" points="173.636364 23.522288 180.747617 23.522288 180.747617 24.9408423 175.046442 24.9408423 175.046442 28.3346119 179.948098 28.3346119 179.948098 29.7510968 175.046442 29.7510968 175.046442 33.9219155 180.909091 33.9219155 180.909091 35.3404698 173.636364 35.3404698"></polygon>
            <path d="M183.217755,24.9408423 L183.217755,28.3506495 L185.750547,28.3506495 C186.94377,28.3506495 187.548674,27.7763989 187.548674,26.6449699 C187.548674,25.515093 186.94377,24.9408423 185.750547,24.9408423 L183.217755,24.9408423 Z M188.345294,35.3404698 L185.08125,29.7697212 L183.217755,29.7697212 L183.217755,35.3404698 L181.818182,35.3404698 L181.818182,23.522288 L185.717863,23.522288 C187.755512,23.522288 188.99703,24.6030174 188.99703,26.6449699 C188.99703,28.3154702 188.217484,29.330497 186.672539,29.6672873 L190,35.3404698 L188.345294,35.3404698 Z" id="Fill-28" fill="#1D1D1B"></path>
            <path d="M198.629272,26.6413331 C198.170403,25.4866744 197.477353,24.9090922 196.532943,24.9090922 C195.3973,24.9090922 194.674865,25.5691139 194.674865,26.6914037 C194.674865,27.2528015 194.867002,27.6655047 195.235905,27.9123174 C195.619275,28.1606475 196.223263,28.4069544 197.06505,28.6552844 C197.817775,28.870234 198.215612,29.0027441 198.762185,29.3330079 C199.573682,29.7942644 199.957052,30.4537803 200,31.6605327 C200,34.1018544 198.657753,35.3404698 196.5777,35.3404698 C194.585803,35.3404698 193.125109,34.1357405 192.727273,31.9068396 L193.936606,31.3798338 C194.334443,33.0958902 195.21963,33.9531598 196.5777,33.9531598 C197.876998,33.9531598 198.702962,33.2273888 198.702962,31.856769 C198.702962,31.3798338 198.525744,31.0146724 198.334059,30.8007343 C198.229626,30.6859259 198.068683,30.5862905 197.83179,30.4876665 C197.375182,30.2732227 197.10845,30.1751045 196.355725,29.9768451 C195.633742,29.77808 195.278853,29.6622601 194.689331,29.3330079 C193.863368,28.8540496 193.435241,28.1267613 193.376018,26.7414743 C193.376018,25.7992365 193.657216,25.0239006 194.218256,24.4301339 C194.777036,23.8191713 195.546037,23.522288 196.532943,23.522288 C198.201145,23.522288 199.292483,24.5945072 199.765367,25.9980016 L198.629272,26.6413331 Z" id="Fill-30" fill="#1D1D1B"></path>
            <g id="Group-34" transform="translate(39.090909, 0.795015)">
                <mask id="mask-8" fill="white">
                    <use xlink:href="#path-7"></use>
                </mask>
                <g id="Clip-33"></g>
                <path d="M6.63352941,3.35206182 C6.14502674,2.27282545 5.40673797,1.73344364 4.4013369,1.73344364 C3.19235294,1.73344364 2.42374332,2.34940727 2.42374332,3.39886182 C2.42374332,3.92358909 2.62780749,4.30933455 3.02053476,4.54002545 C3.42914439,4.77213455 4.07165775,5.00235273 4.96828877,5.23493455 C5.76914439,5.43537091 6.1926738,5.55875273 6.77454545,5.86791636 C7.6384492,6.29904364 8.04705882,6.91548 8.09229947,8.04340727 C8.09229947,10.3252618 6.66385027,11.4829709 4.44946524,11.4829709 C2.3284492,11.4829709 0.773903743,10.3569345 0.350374332,8.27362545 L1.63780749,7.78104364 C2.0613369,9.38453455 3.00368984,10.1867527 4.44946524,10.1867527 C5.83219251,10.1867527 6.71149733,9.50838909 6.71149733,8.22682545 C6.71149733,7.78104364 6.52283422,7.43973455 6.31877005,7.23977091 C6.20807487,7.13293455 6.03625668,7.03886182 5.78454545,6.94715273 C5.2984492,6.74671636 5.0140107,6.65500727 4.21315508,6.46969818 C3.44406417,6.28391636 3.06673797,6.17518909 2.4386631,5.86791636 C1.55983957,5.42024364 1.10406417,4.74046182 1.04101604,3.44566182 C1.04101604,2.56497091 1.34037433,1.84028 1.93524064,1.28529818 C2.53251337,0.714243636 3.35069519,0.436752727 4.4013369,0.436752727 C6.17775401,0.436752727 7.33909091,1.43940727 7.84299465,2.75075273 L6.63352941,3.35206182 Z" id="Fill-32" fill="#1D1D1B" mask="url(#mask-8)"></path>
            </g>
            <path d="M50,0.795015269 L51.2891051,0.795015269 L51.2891051,8.52274048 C51.2891051,10.1262895 52.1549487,11.2106671 53.6363636,11.2106671 C55.1164306,11.2106671 55.9818249,10.1262895 55.9818249,8.52274048 L55.9818249,0.795015269 L57.2727273,0.795015269 L57.2727273,8.42350969 C57.2727273,9.72476286 56.9343877,10.7441801 56.2451277,11.4940375 C55.5558676,12.2464524 54.6922705,12.6131971 53.6363636,12.6131971 C52.5804567,12.6131971 51.7146131,12.2464524 51.0258023,11.4940375 C50.3365422,10.7441801 50,9.72476286 50,8.42350969 L50,0.795015269 Z" id="Fill-35" fill="#1D1D1B"></path>
            <path d="M64.9532116,6.12985553 C66.1668247,6.12985553 66.7835248,5.47179533 66.7835248,4.17171255 C66.7835248,2.87214712 66.1668247,2.21408692 64.9532116,2.21408692 L62.2626276,2.21408692 L62.2626276,6.12985553 L64.9532116,6.12985553 Z M62.2626276,7.54892718 L62.2626276,12.6131971 L60.9090909,12.6131971 L60.9090909,0.795015269 L64.9828923,0.795015269 C67.0275666,0.795015269 68.1818182,2.07854307 68.1818182,4.17171255 C68.1818182,6.26539938 67.0275666,7.54892718 64.9828923,7.54892718 L62.2626276,7.54892718 Z" id="Fill-37" fill="#1D1D1B"></path>
            <polygon id="Fill-39" fill="#1D1D1B" points="71.8181818 0.795015269 78.9294347 0.795015269 78.9294347 2.21408692 73.2282605 2.21408692 73.2282605 5.60733917 78.1299157 5.60733917 78.1299157 7.02382411 73.2282605 7.02382411 73.2282605 11.1941254 79.0909091 11.1941254 79.0909091 12.6131971 71.8181818 12.6131971"></polygon>
            <path d="M81.4000607,2.21408692 L81.4000607,5.62389415 L83.9323656,5.62389415 C85.1255881,5.62389415 85.7304924,5.0496435 85.7304924,3.91769717 C85.7304924,2.78782022 85.1255881,2.21408692 83.9323656,2.21408692 L81.4000607,2.21408692 Z M86.5271123,12.6131971 L83.2635561,7.04244845 L81.4000607,7.04244845 L81.4000607,12.6131971 L80,12.6131971 L80,0.795015269 L83.8996813,0.795015269 C85.9378184,0.795015269 87.1788479,1.87574464 87.1788479,3.91769717 C87.1788479,5.58871483 86.3993019,6.60374165 84.8548447,6.94001455 L88.1818182,12.6131971 L86.5271123,12.6131971 Z" id="Fill-41" fill="#1D1D1B"></path>
            <polygon id="Fill-43" fill="#1D1D1B" points="90.9090909 2.21408692 90.9090909 0.795015269 99.0909091 0.795015269 99.0909091 2.21408692 95.687001 2.21408692 95.687001 12.6131971 94.3125206 12.6131971 94.3125206 2.21408692"></polygon>
            <polygon id="Fill-45" fill="#1D1D1B" points="106.860258 0.795015269 108.181818 0.795015269 108.181818 12.6131971 106.860258 12.6131971 106.860258 7.04244845 102.232033 7.04244845 102.232033 12.6131971 100.909091 12.6131971 100.909091 0.795015269 102.232033 0.795015269 102.232033 5.62389415 106.860258 5.62389415"></polygon>
            <polygon id="Fill-47" fill="#1D1D1B" points="118.181818 12.6131971 112.727273 12.6131971 112.727273 11.3296693 114.889788 11.3296693 114.889788 2.07854307 112.727273 2.07854307 112.727273 0.795015269 118.181818 0.795015269 118.181818 2.07854307 116.017341 2.07854307 116.017341 11.3296693 118.181818 11.3296693"></polygon>
            <polygon id="Fill-49" fill="#1D1D1B" points="126.841109 0.795015269 128.181818 0.795015269 128.181818 12.6131971 126.718674 12.6131971 122.2498 3.495028 122.2498 12.6131971 120.909091 12.6131971 120.909091 0.795015269 122.372235 0.795015269 126.841109 9.91111498"></polygon>
            <path d="M137.939587,12.480687 L137.863915,10.9295095 C137.39503,12.0356149 136.36441,12.6131971 135.198232,12.6131971 C133.970773,12.6131971 132.955474,12.1018699 132.136549,11.093377 C131.319482,10.0712284 130.909091,8.60249046 130.909091,6.7038533 C130.909091,4.78953746 131.319482,3.32029373 132.136549,2.31432961 C132.969865,1.30583667 134.015341,0.795015269 135.288295,0.795015269 C137.288254,0.795015269 138.605775,2.14793333 139.090909,4.31057918 L137.833275,4.72378817 C137.349069,3.00570867 136.605816,2.1818195 135.288295,2.1818195 C133.409504,2.1818195 132.289285,3.65106323 132.289285,6.7038533 C132.289285,9.75664336 133.409504,11.2258871 135.288295,11.2258871 C136.727448,11.2258871 137.531053,10.1698524 137.667076,8.04109268 L135.288295,8.04109268 L135.288295,6.65378268 L139.045413,6.65378268 L139.045413,12.480687 L137.939587,12.480687 Z" id="Fill-51" fill="#1D1D1B"></path>
            <mask id="mask-10" fill="white">
                <use xlink:href="#path-9"></use>
            </mask>
            <g id="Clip-54"></g>
            <polygon id="Fill-53" fill="#1D1D1B" mask="url(#mask-10)" points="71.8181818 30.7950153 108.181818 30.7950153 108.181818 29.8859244 71.8181818 29.8859244"></polygon>
        </g>
    </g>
</svg>